<?xml version="1.0" encoding="UTF-8" standalone="no"?>
<!-- Created with Inkscape (http://www.inkscape.org/) -->

<svg
   xmlns:dc="http://purl.org/dc/elements/1.1/"
   xmlns:cc="http://creativecommons.org/ns#"
   xmlns:rdf="http://www.w3.org/1999/02/22-rdf-syntax-ns#"
   xmlns:svg="http://www.w3.org/2000/svg"
   xmlns="http://www.w3.org/2000/svg"
   xmlns:xlink="http://www.w3.org/1999/xlink"
   xmlns:sodipodi="http://sodipodi.sourceforge.net/DTD/sodipodi-0.dtd"
   xmlns:inkscape="http://www.inkscape.org/namespaces/inkscape"
   width="240"
   height="240"
   viewBox="0 0 63.500002 63.499999"
   version="1.1"
   id="svg8"
   sodipodi:docname="DryIcon.svg"
   inkscape:export-filename="../bin/Data/Textures/DryIcon.png"
   inkscape:export-xdpi="19.200001"
   inkscape:export-ydpi="19.200001"
   inkscape:version="0.92.3 (2405546, 2018-03-11)">
  <defs
     id="defs2">
    <linearGradient
       inkscape:collect="always"
       id="linearGradient850">
      <stop
         id="stop848"
         offset="0"
         style="stop-color:#a9f000;stop-opacity:0;" />
      <stop
         style="stop-color:#a9f000;stop-opacity:0.52036202"
         offset="0.42623383"
         id="stop854" />
      <stop
         id="stop846"
         offset="1"
         style="stop-color:#a9f000;stop-opacity:1;" />
    </linearGradient>
    <linearGradient
       inkscape:collect="always"
       id="linearGradient839">
      <stop
         style="stop-color:#260066;stop-opacity:1"
         offset="0"
         id="stop835" />
      <stop
         id="stop843"
         offset="0.66039306"
         style="stop-color:#3a0037;stop-opacity:0.99607843" />
      <stop
         style="stop-color:#270068;stop-opacity:0.99215686"
         offset="1"
         id="stop837" />
    </linearGradient>
    <linearGradient
       inkscape:collect="always"
       id="linearGradient1056">
      <stop
         style="stop-color:#f6ffa7;stop-opacity:1;"
         offset="0"
         id="stop1052" />
      <stop
         style="stop-color:#f6ffa7;stop-opacity:0;"
         offset="1"
         id="stop1054" />
    </linearGradient>
    <linearGradient
       inkscape:collect="always"
       xlink:href="#linearGradient839"
       id="linearGradient841"
       x1="115.25143"
       y1="292.03513"
       x2="115.25143"
       y2="188.68669"
       gradientUnits="userSpaceOnUse"
       gradientTransform="matrix(0.76403238,-0.02213034,0.01066949,0.36868343,79.975096,190.4315)" />
    <linearGradient
       inkscape:collect="always"
       xlink:href="#linearGradient839"
       id="linearGradient841-3"
       x1="115.25143"
       y1="292.03513"
       x2="115.25143"
       y2="188.68669"
       gradientUnits="userSpaceOnUse"
       gradientTransform="matrix(2.3636182,0,0,1.090314,-10.426899,-129.91446)" />
    <linearGradient
       inkscape:collect="always"
       xlink:href="#linearGradient1056"
       id="linearGradient906-2"
       gradientUnits="userSpaceOnUse"
       gradientTransform="matrix(1.1831867,-0.02553053,-0.01993737,0.53804808,32.143762,186.90891)"
       x1="67.516327"
       y1="135.63347"
       x2="67.88385"
       y2="144.45337" />
    <linearGradient
       inkscape:collect="always"
       xlink:href="#linearGradient1056"
       id="linearGradient1058-9"
       x1="60.834591"
       y1="212.87436"
       x2="61.736656"
       y2="128.68446"
       gradientUnits="userSpaceOnUse"
       gradientTransform="matrix(0.79831124,-0.03133574,0.01419807,0.361705,28.234066,211.822)" />
    <radialGradient
       inkscape:collect="always"
       xlink:href="#linearGradient850"
       id="radialGradient908-3"
       cx="11.335172"
       cy="281.29395"
       fx="11.335172"
       fy="281.29395"
       r="4.2255912"
       gradientTransform="matrix(0.81099181,-0.00502485,0.02136293,4.2806444,12.965987,-920.06582)"
       gradientUnits="userSpaceOnUse" />
    <radialGradient
       inkscape:collect="always"
       xlink:href="#linearGradient862-6"
       id="radialGradient864-2"
       cx="12.818681"
       cy="271.44006"
       fx="12.818681"
       fy="271.44006"
       r="2.2450638"
       gradientTransform="matrix(3.0473582,0.43689522,-0.5493686,4.7695382,139.73174,-1034.5867)"
       gradientUnits="userSpaceOnUse" />
    <linearGradient
       inkscape:collect="always"
       id="linearGradient862-6">
      <stop
         style="stop-color:#ffffff;stop-opacity:0.94570136"
         offset="0"
         id="stop858-1" />
      <stop
         id="stop888-8"
         offset="0.10836695"
         style="stop-color:#cafe4f;stop-opacity:0.86877829" />
      <stop
         id="stop881-7"
         offset="0.32630947"
         style="stop-color:#6a8d14;stop-opacity:0.47511312" />
      <stop
         id="stop879-9"
         offset="0.87123287"
         style="stop-color:#69ab00;stop-opacity:0.80542988" />
      <stop
         style="stop-color:#c0ff01;stop-opacity:1"
         offset="1"
         id="stop860-2" />
    </linearGradient>
    <linearGradient
       inkscape:collect="always"
       xlink:href="#linearGradient1661"
       id="linearGradient1663"
       x1="207.98714"
       y1="86.83535"
       x2="200.00713"
       y2="99.289749"
       gradientUnits="userSpaceOnUse"
       gradientTransform="matrix(-0.26458333,0,-0.00517207,0.26458333,69.184168,240.48325)" />
    <linearGradient
       inkscape:collect="always"
       id="linearGradient1661">
      <stop
         style="stop-color:#f6ffa7;stop-opacity:1;"
         offset="0"
         id="stop1657" />
      <stop
         style="stop-color:#f6ffa7;stop-opacity:0.561086"
         offset="1"
         id="stop1659" />
    </linearGradient>
    <radialGradient
       inkscape:collect="always"
       xlink:href="#linearGradient1626"
       id="radialGradient1628"
       cx="12.963132"
       cy="271.65317"
       fx="12.963132"
       fy="271.65317"
       r="3.7553961"
       gradientTransform="matrix(1.2529755,-0.04918246,0.08445598,2.1515702,-10.228419,-318.20226)"
       gradientUnits="userSpaceOnUse" />
    <linearGradient
       inkscape:collect="always"
       id="linearGradient1626">
      <stop
         id="stop1624"
         offset="0"
         style="stop-color:#16002e;stop-opacity:0.75294119" />
      <stop
         style="stop-color:#16002e;stop-opacity:0.75294119"
         offset="0.58026838"
         id="stop2048" />
      <stop
         id="stop1622"
         offset="1"
         style="stop-color:#6600d7;stop-opacity:1" />
    </linearGradient>
    <linearGradient
       inkscape:collect="always"
       xlink:href="#linearGradient839"
       id="linearGradient841-1"
       x1="115.25143"
       y1="292.03513"
       x2="115.25143"
       y2="188.68669"
       gradientUnits="userSpaceOnUse"
       gradientTransform="matrix(2.8876814,-0.08364223,0.04032563,1.3934492,-18.020445,-164.05028)" />
    <linearGradient
       inkscape:collect="always"
       xlink:href="#linearGradient839"
       id="linearGradient1998"
       gradientUnits="userSpaceOnUse"
       gradientTransform="matrix(0.76345729,-0.05214044,0.02515106,0.36840379,77.007951,188.34416)"
       x1="115.25143"
       y1="292.03513"
       x2="115.25143"
       y2="188.68669" />
  </defs>
  <sodipodi:namedview
     id="base"
     pagecolor="#000000"
     bordercolor="#666666"
     borderopacity="1.0"
     inkscape:pageopacity="0"
     inkscape:pageshadow="2"
     inkscape:zoom="2"
     inkscape:cx="242.30264"
     inkscape:cy="125.61624"
     inkscape:document-units="px"
     inkscape:current-layer="layer1"
     showgrid="false"
     showborder="false"
     inkscape:snap-global="false"
     units="px"
     inkscape:window-width="1920"
     inkscape:window-height="1061"
     inkscape:window-x="0"
     inkscape:window-y="0"
     inkscape:window-maximized="1"
     scale-x="1.1"
     inkscape:snap-page="true"
     inkscape:snap-bbox="true"
     inkscape:snap-nodes="false"
     inkscape:snap-others="false"
     inkscape:bbox-nodes="true"
     showguides="true"
     inkscape:guide-bbox="true"
     inkscape:pagecheckerboard="false" />
  <metadata
     id="metadata5">
    <rdf:RDF>
      <cc:Work
         rdf:about="">
        <dc:format>image/svg+xml</dc:format>
        <dc:type
           rdf:resource="http://purl.org/dc/dcmitype/StillImage" />
        <dc:title></dc:title>
      </cc:Work>
    </rdf:RDF>
  </metadata>
  <g
     inkscape:label="Layer 1"
     inkscape:groupmode="layer"
     id="layer1"
     transform="translate(0,-233.49998)">
    <g
       id="g2236"
       transform="matrix(0.99250274,-0.0645601,0.02298732,1.1303804,-6.074704,-35.210655)"
       style="stroke-width:0.9434846">
      <path
         style="color:#000000;font-style:normal;font-variant:normal;font-weight:normal;font-stretch:normal;font-size:medium;line-height:normal;font-family:sans-serif;font-variant-ligatures:normal;font-variant-position:normal;font-variant-caps:normal;font-variant-numeric:normal;font-variant-alternates:normal;font-feature-settings:normal;text-indent:0;text-align:start;text-decoration:none;text-decoration-line:none;text-decoration-style:solid;text-decoration-color:#000000;letter-spacing:normal;word-spacing:normal;text-transform:none;writing-mode:lr-tb;direction:ltr;text-orientation:mixed;dominant-baseline:auto;baseline-shift:baseline;text-anchor:start;white-space:normal;shape-padding:0;clip-rule:nonzero;display:inline;overflow:visible;visibility:visible;opacity:1;isolation:auto;mix-blend-mode:normal;color-interpolation:sRGB;color-interpolation-filters:linearRGB;solid-color:#000000;solid-opacity:1;vector-effect:none;fill:url(#linearGradient841);fill-opacity:1;fill-rule:evenodd;stroke:#7a2cc6;stroke-width:0.50095588;stroke-linecap:round;stroke-linejoin:round;stroke-miterlimit:4;stroke-dasharray:none;stroke-dashoffset:0;stroke-opacity:0.57918552;marker:none;color-rendering:auto;image-rendering:auto;shape-rendering:auto;text-rendering:auto;enable-background:accumulate"
         d="m 12.140008,258.63929 c 0.08807,-0.008 0.176633,-0.0107 0.262375,-0.005 1.691775,0.16493 2.505426,1.0512 2.837235,2.16958 0.332005,1.11903 0.182563,2.51121 -0.118985,3.68922 -0.01688,0.0668 0.0026,0.14075 0.04411,0.16802 0.735158,0.45973 2.088004,0.37566 3.295463,0.49975 0.603723,0.0621 1.168569,0.17552 1.588572,0.41472 0.417176,0.2376 0.678974,0.58409 0.737299,1.13018 -0.0052,0.49856 -0.169297,0.90709 -0.462902,1.25514 -0.29631,0.35123 -0.720433,0.62751 -1.205881,0.82342 -0.970905,0.39185 -2.186145,0.46415 -3.125008,0.26207 -0.438817,-0.0974 -0.697297,-0.0496 -0.847593,0.16333 -0.07516,0.1065 -0.111088,0.25146 -0.117983,0.39635 -0.007,0.14491 0.01015,0.29421 0.03777,0.44743 0.05524,0.30644 0.153768,0.6327 0.218581,0.91933 0.0324,0.14332 0.05594,0.27679 0.06351,0.38551 0.0076,0.10874 -0.0013,0.18677 -0.02173,0.23844 -0.01047,0.0275 -0.01481,0.0593 -0.01171,0.09 0.363159,3.65507 1.983552,7.09671 4.624003,9.72765 0.0174,0.10212 0.01571,0.17464 -0.0039,0.22915 -0.02199,0.0605 -0.06591,0.11865 -0.132684,0.16773 -0.133551,0.0981 -0.343995,0.14965 -0.523065,0.18626 -0.08954,0.0183 -0.170357,0.0334 -0.237298,0.0548 -0.03344,0.0113 -0.06383,0.023 -0.09259,0.0425 -0.02872,0.0193 -0.06611,0.0479 -0.08389,0.1262 -0.01778,0.0782 0.0079,0.15154 0.03176,0.19145 0.02387,0.0399 0.05194,0.0705 0.09024,0.10497 0.0755,0.0677 0.191429,0.14705 0.358961,0.24937 0.293023,0.21618 0.389541,0.45806 0.389702,0.67654 1.68e-4,0.2185 -0.103269,0.46024 -0.288101,0.65767 -0.369659,0.39488 -1.0296,0.56569 -1.548131,0.0429 -0.110532,-0.13735 -0.190542,-0.2251 -0.256015,-0.27279 -0.03357,-0.0245 -0.06468,-0.0423 -0.104277,-0.039 -0.03958,0.003 -0.08669,0.0484 -0.10662,0.10013 -0.03984,0.10339 -0.02755,0.18456 -0.02271,0.28137 0.0045,0.0968 0.0141,0.20583 0.01773,0.31992 0.0073,0.22814 -0.0084,0.46049 -0.100268,0.62941 -0.09171,0.16862 -0.274125,0.3078 -0.654747,0.29555 -2.782455,-0.48563 -4.295096,-3.10324 -5.434503,-5.24472 -1.5866627,-3.27979 -2.026211,-7.24015 -2.6366992,-10.60111 -0.010025,-0.0553 -0.042298,-0.0934 -0.079882,-0.0937 -2.3810533,-0.0489 -5.1649443,0.66666 -7.1998812,-0.3877 -0.92103894,-0.68508 -1.32950995,-2.30145 -1.01670845,-3.34624 0.31324134,-1.04624 1.41474715,-1.64603 2.89204955,-1.48601 l 0.0013,-7e-5 c 1.8248868,0.1323 3.8857654,0.27536 5.7439932,0.32926 0.040876,0.001 0.077903,-0.0409 0.088904,-0.10226 0.1893599,-1.10403 0.3768183,-2.50352 0.7794165,-3.65279 0.4025916,-1.14927 1.0053896,-2.04632 2.0628376,-2.19912 0.0892,-0.0134 0.178372,-0.0258 0.266707,-0.0348 l 0.0013,-7e-5 z m 1.261368,14.049 c -0.04224,-0.002 -0.08036,0.0433 -0.09024,0.10744 -0.07358,0.4726 -0.01857,1.17853 0.03674,1.56321 0.01384,0.0961 0.02684,0.16943 0.04443,0.22793 0.0045,0.0145 0.0085,0.0277 0.01636,0.0441 0.0079,0.0164 0.01876,0.0411 0.05077,0.056 0.03207,0.015 0.08186,-0.0162 0.09893,-0.0469 0.01708,-0.0307 0.02057,-0.0529 0.02406,-0.0716 0.01391,-0.0753 0.01248,-0.14618 0.01003,-0.27859 -0.0026,-0.13148 -0.01035,-0.31193 -0.02509,-0.55203 -0.0052,-0.13051 -0.01333,-0.32493 -0.02774,-0.5095 -0.01442,-0.18456 -0.02936,-0.34879 -0.06752,-0.46901 -0.01338,-0.0416 -0.04035,-0.0688 -0.07085,-0.0709 z m 2.651413,7.26147 c -0.08365,0.009 -0.115344,0.17668 -0.04643,0.24603 0.360326,0.37176 0.568287,0.57116 0.677474,0.66384 0.02729,0.0232 0.04805,0.041 0.06618,0.053 0.0091,0.007 0.01778,0.01 0.02911,0.0138 0.0058,0.003 0.01229,0.007 0.0227,0.007 0.0052,7.1e-4 0.01888,-0.003 0.0194,-0.003 5.1e-4,-1.3e-4 0.03111,-0.0171 0.03144,-0.0173 3.44e-4,-2.1e-4 0.03428,-0.0542 0.03441,-0.0546 1.62e-4,-5.3e-4 0.01138,-0.0651 0.01138,-0.0657 0,-5.2e-4 -0.0019,-0.0325 -0.0039,-0.0426 -0.0019,-0.0101 -0.0045,-0.0175 -0.0068,-0.0234 -0.0079,-0.0242 -0.01442,-0.0317 -0.02037,-0.0417 -0.01196,-0.0202 -0.0238,-0.0389 -0.04042,-0.0602 -0.12414,-0.15909 -0.439691,-0.47106 -0.690513,-0.62227 -0.01643,-0.0169 -0.01429,-0.0137 -0.03144,-0.0313 l -0.0013,0.002 c -0.0065,-0.004 -0.01145,-0.013 -0.01772,-0.0166 -0.0076,-0.004 -0.01591,-0.006 -0.02406,-0.007 l -3.42e-4,3e-5 c -0.0032,-3.5e-4 -0.0058,-2e-4 -0.009,-2e-5 z"
         id="path1842"
         inkscape:connector-curvature="0"
         sodipodi:nodetypes="scsccscsccccccccccccccccccccccccccccccsccccsccccccsscccccccccccccccscccccccccccccccccccc" />
      <path
         sodipodi:nodetypes="ccccccc"
         inkscape:connector-curvature="0"
         id="path823-2"
         d="m 3.3248745,262.75137 c 5.5484006,0.60539 11.3176315,0.45316 16.7135315,1.65776 1.290389,1.28142 -0.538302,3.25845 -2.128427,2.91126 -5.355799,-0.26027 -10.7659683,0.82044 -16.1096324,0.26374 -1.88066774,-0.89495 -1.9530238,-5.24674 0.8383622,-4.89725 l 0.3941246,0.0371 z"
         style="color:#000000;clip-rule:nonzero;display:inline;overflow:visible;visibility:visible;opacity:1;isolation:auto;mix-blend-mode:normal;color-interpolation:sRGB;color-interpolation-filters:linearRGB;solid-color:#000000;solid-opacity:1;vector-effect:none;fill:#b7ff0d;fill-opacity:1;fill-rule:evenodd;stroke:none;stroke-width:2.01789641;stroke-linecap:round;stroke-linejoin:round;stroke-miterlimit:4;stroke-dasharray:none;stroke-dashoffset:0;stroke-opacity:1;marker:none;color-rendering:auto;image-rendering:auto;shape-rendering:auto;text-rendering:auto;enable-background:accumulate" />
      <path
         id="path817-3"
         transform="matrix(0.26458334,0,0,0.26458334,0,233.49998)"
         d="m 46.232422,92.542969 c -3.736138,6.13e-4 -7.750427,2.518455 -9.353516,5.615234 -7.591383,14.664827 -2.81195,35.590787 0.429688,53.003907 5.525472,19.75548 3.370851,23.82361 7.699218,27.83203 3.007253,2.78498 18.153307,5.44856 13.820313,12.04297 6.210985,1.80586 2.158516,-5.26633 -0.724609,-7.24219 -6.676883,-5.46489 -9.189515,-13.40749 -9.3125,-21.25976 1.665479,-7.14002 -0.974765,-6.51176 -1.355469,-14.93164 0.851085,3.37621 0.380509,4.74679 3.785156,9.45117 -2.271073,11.51607 7.503948,22.13809 16.818359,29.92773 3.682553,3.87746 4.962328,0.006 1.664063,-2.26758 -1.775592,-1.82211 -3.415938,-3.63233 -5.90625,-5.28515 0.34588,-5.25974 -1.60527,-6.65214 -4.03125,-9.17188 6.018017,-1.71364 6.391475,8.39978 13.34375,9.68164 -7.875617,-6.89317 -12.694646,-15.87664 -15.259766,-25.15039 -3.368598,-13.59673 -3.651038,-27.80523 -1.658203,-41.6914 0.562061,-3.08792 0.267444,-19.636033 -9.216797,-20.519535 -0.245805,-0.0229 -0.493111,-0.0352 -0.742187,-0.03516 z m 2.46875,91.330081 c 0.530328,2.38647 4.066406,5.92187 4.066406,5.92187 0,0 0.529835,-0.26544 0.08789,-2.0332 -0.44194,-1.7678 -2.740085,-2.47449 -4.154296,-3.88867 z"
         style="color:#000000;font-style:normal;font-variant:normal;font-weight:normal;font-stretch:normal;font-size:medium;line-height:normal;font-family:sans-serif;font-variant-ligatures:normal;font-variant-position:normal;font-variant-caps:normal;font-variant-numeric:normal;font-variant-alternates:normal;font-feature-settings:normal;text-indent:0;text-align:start;text-decoration:none;text-decoration-line:none;text-decoration-style:solid;text-decoration-color:#000000;letter-spacing:normal;word-spacing:normal;text-transform:none;writing-mode:lr-tb;direction:ltr;text-orientation:mixed;dominant-baseline:auto;baseline-shift:baseline;text-anchor:start;white-space:normal;shape-padding:0;clip-rule:nonzero;display:inline;overflow:visible;visibility:visible;opacity:1;isolation:auto;mix-blend-mode:normal;color-interpolation:sRGB;color-interpolation-filters:linearRGB;solid-color:#000000;solid-opacity:1;vector-effect:none;fill:#a9f000;fill-opacity:1;fill-rule:evenodd;stroke:none;stroke-width:7.62669563;stroke-linecap:round;stroke-linejoin:round;stroke-miterlimit:4;stroke-dasharray:none;stroke-dashoffset:0;stroke-opacity:1;marker:none;color-rendering:auto;image-rendering:auto;shape-rendering:auto;text-rendering:auto;enable-background:accumulate"
         inkscape:connector-curvature="0" />
      <g
         id="g1965"
         style="stroke-width:0.9434846">
        <path
           style="color:#000000;font-style:normal;font-variant:normal;font-weight:normal;font-stretch:normal;font-size:medium;line-height:normal;font-family:sans-serif;font-variant-ligatures:normal;font-variant-position:normal;font-variant-caps:normal;font-variant-numeric:normal;font-variant-alternates:normal;font-feature-settings:normal;text-indent:0;text-align:start;text-decoration:none;text-decoration-line:none;text-decoration-style:solid;text-decoration-color:#000000;letter-spacing:normal;word-spacing:normal;text-transform:none;writing-mode:lr-tb;direction:ltr;text-orientation:mixed;dominant-baseline:auto;baseline-shift:baseline;text-anchor:start;white-space:normal;shape-padding:0;clip-rule:nonzero;display:inline;overflow:visible;visibility:visible;opacity:1;isolation:auto;mix-blend-mode:normal;color-interpolation:sRGB;color-interpolation-filters:linearRGB;solid-color:#000000;solid-opacity:1;vector-effect:none;fill:url(#linearGradient1663);fill-opacity:1;fill-rule:evenodd;stroke:none;stroke-width:2.01789641;stroke-linecap:round;stroke-linejoin:round;stroke-miterlimit:4;stroke-dasharray:none;stroke-dashoffset:0;stroke-opacity:1;marker:none;color-rendering:auto;image-rendering:auto;shape-rendering:auto;text-rendering:auto;enable-background:accumulate"
           d="m 11.79078,259.82603 c 0.11634,-0.009 0.22122,-0.003 0.22122,-0.003 0,0 -0.39025,0.18385 -0.29248,0.31879 0.0978,0.13493 0.99732,-0.16947 0.96863,-0.33139 0.23747,0.1276 -0.15162,0.35838 -0.15162,0.35838 0.62093,-0.26623 1.00307,-0.006 1.36005,0.20859 0.35698,0.21465 0.53794,0.0417 0.53794,0.0417 0,0 -0.14911,0.42802 -0.38118,0.46361 0.13806,0.64644 0.39869,0.77289 0.39869,0.77289 l -0.58284,0.007 c 0,0 -0.10267,0.42565 -0.004,0.58389 0.0561,0.09 -0.15334,0.0466 -0.32551,0.0534 -0.0817,0.6102 -0.45175,1.40825 -0.6765,1.38979 -0.3795,-0.0312 0.005,0.64991 0.7758,1.05403 h 5.3e-4 c 0.68868,0.0457 0.46726,0.0724 0.57409,0.1576 -0.18608,2.03803 -0.87431,2.54152 -0.63757,3.88763 0.23675,1.34611 0.952856,1.34582 0.86159,2.69195 -0.04387,0.64743 0.578752,1.83644 0.805951,2.85475 0.163964,0.73485 -0.09467,3.54407 0.184638,3.95506 0.53814,0.79183 1.923999,2.37558 0.601685,2.13803 -1.322313,-0.23755 -2.813938,-4.01942 -2.25721,-5.52389 -0.622488,-0.39593 -1.526974,-3.10737 -1.526974,-3.10737 0,0 0.33688,7.60165 0.91619,9.10613 0.57931,1.50448 -1.88551,-0.63338 -1.82999,-1.34602 0.0555,-0.71265 -1.95869,-7.13047 -1.97111,-7.48258 -0.0238,-0.67305 -1.2e-4,-2.61305 0.42365,-3.16732 -0.0793,-0.55428 -0.74073,-2.08153 -0.855,-4.04408 0.0501,-0.10081 0.5397,-0.55683 1.39443,-0.57911 0.81265,-1.03283 0.43579,-0.94459 0.46821,-1.51015 -0.0494,0.0371 -0.10518,0.0698 -0.1719,0.0868 -0.23129,0.0589 -0.66276,-0.29192 -0.66276,-0.29192 0,0 0.42446,0.1412 0.51295,-0.004 -0.0418,-0.55818 -0.1225,-0.88094 -0.3592,-0.9852 -0.2367,-0.10426 0.003,-0.63038 0.003,-0.63038 0,0 0.0334,0.30161 0.14981,0.29547 0.11641,-0.006 0.29799,-0.85625 -0.0451,-0.65138 0.29341,-0.29564 0.70775,-0.45759 1.01352,-0.38032 0.30578,0.0773 0.181,-0.17267 0.27027,-0.29411 0.0446,-0.0607 0.17232,-0.0853 0.28864,-0.0943 z"
           id="path1044-7"
           inkscape:connector-curvature="0"
           sodipodi:nodetypes="ccscccccccccscccssscccccsscccccccscsccccc" />
        <path
           style="color:#000000;clip-rule:nonzero;display:inline;overflow:visible;visibility:visible;opacity:1;isolation:auto;mix-blend-mode:normal;color-interpolation:sRGB;color-interpolation-filters:linearRGB;solid-color:#000000;solid-opacity:1;vector-effect:none;fill:#fefffd;fill-opacity:1;fill-rule:evenodd;stroke:none;stroke-width:2.01789641;stroke-linecap:round;stroke-linejoin:round;stroke-miterlimit:4;stroke-dasharray:none;stroke-dashoffset:0;stroke-opacity:1;marker:none;color-rendering:auto;image-rendering:auto;shape-rendering:auto;text-rendering:auto;enable-background:accumulate"
           d="m 2.3787833,264.49353 c 0.2660025,-0.0702 1.4312414,-0.0888 1.4312414,-0.0888 1.7748442,-0.18109 3.9562537,-0.48488 5.4886622,-0.64185 2.0433001,0.1024 3.3256051,0.11772 5.7369481,0.49912 1.58083,0.25003 3.144543,0.508 4.677896,0.77975 1.32463,0.41031 -0.596062,0.49111 -2.242466,0.20069 -0.855897,-0.12623 -1.761839,-0.0956 -2.625897,-0.14008 -0.792096,-0.0408 -0.743034,-0.0318 -1.536233,-0.0685 -0.06962,0.18132 -0.495195,0.43487 -0.563557,0.73743 -0.128431,0.56842 -0.592409,1.02939 -1.036376,1.02939 -0.443976,0 -0.700193,-0.46097 -0.571771,-1.02939 0.07553,-0.33431 -0.419959,-0.62471 -0.319719,-0.81771 -3.168816,-0.13939 -5.1540546,-0.16516 -8.2947955,0.15791 -1.72971342,0.0706 -1.69981152,-0.20752 -0.1439332,-0.61803 z"
           id="path1042-5"
           inkscape:connector-curvature="0"
           sodipodi:nodetypes="cccsccsccssccsc" />
      </g>
    </g>
    <path
       sodipodi:nodetypes="szsss"
       inkscape:connector-curvature="0"
       id="path1620"
       d="m 33.515609,264.21378 c 0.07299,4.2473 -2.99652,8.60692 -4.809635,8.67809 -1.813116,0.0712 -4.522597,-4.06162 -4.595582,-8.30891 -0.07299,-4.24729 1.973273,-7.77305 4.570452,-7.875 2.597182,-0.10194 4.761781,3.25853 4.834765,7.50582 z"
       style="color:#000000;clip-rule:nonzero;display:inline;overflow:visible;visibility:visible;opacity:1;isolation:auto;mix-blend-mode:normal;color-interpolation:sRGB;color-interpolation-filters:linearRGB;solid-color:#000000;solid-opacity:1;vector-effect:none;fill:url(#radialGradient1628);fill-opacity:1;fill-rule:evenodd;stroke:none;stroke-width:1.41901422;stroke-linecap:round;stroke-linejoin:round;stroke-miterlimit:4;stroke-dasharray:none;stroke-dashoffset:0;stroke-opacity:0.33936654;marker:none;color-rendering:auto;image-rendering:auto;shape-rendering:auto;text-rendering:auto;enable-background:accumulate" />
    <path
       style="color:#000000;font-style:normal;font-variant:normal;font-weight:normal;font-stretch:normal;font-size:medium;line-height:normal;font-family:sans-serif;font-variant-ligatures:normal;font-variant-position:normal;font-variant-caps:normal;font-variant-numeric:normal;font-variant-alternates:normal;font-feature-settings:normal;text-indent:0;text-align:start;text-decoration:none;text-decoration-line:none;text-decoration-style:solid;text-decoration-color:#000000;letter-spacing:normal;word-spacing:normal;text-transform:none;writing-mode:lr-tb;direction:ltr;text-orientation:mixed;dominant-baseline:auto;baseline-shift:baseline;text-anchor:start;white-space:normal;shape-padding:0;clip-rule:nonzero;display:inline;overflow:visible;visibility:visible;opacity:1;isolation:auto;mix-blend-mode:normal;color-interpolation:sRGB;color-interpolation-filters:linearRGB;solid-color:#000000;solid-opacity:1;vector-effect:none;fill:url(#linearGradient1998);fill-opacity:1;fill-rule:evenodd;stroke:#7a2cc6;stroke-width:0.53096354;stroke-linecap:round;stroke-linejoin:round;stroke-miterlimit:4;stroke-dasharray:none;stroke-dashoffset:0;stroke-opacity:0.57918552;marker:none;color-rendering:auto;image-rendering:auto;shape-rendering:auto;text-rendering:auto;enable-background:accumulate"
       d="m 27.158039,234.17602 3.9e-5,0.001 c -1.041228,0.0319 -2.070028,0.13265 -3.080622,0.28998 -0.02855,0.14243 -0.04218,0.27481 0.02076,0.39883 0.07841,0.15445 0.233389,0.3113 0.456465,0.46076 0.44615,0.29886 1.155231,0.55977 1.9751,0.78782 1.639738,0.45608 3.710342,0.78692 5.084332,1.19367 0.0087,0.004 0.01703,0.007 0.02512,0.0119 0.269785,0.12917 0.887347,0.24397 1.576387,0.32805 0.689043,0.0841 1.459075,0.14571 2.091375,0.21457 0.316148,0.0344 0.598027,0.071 0.821503,0.1122 0.223477,0.0412 0.376899,0.0627 0.506732,0.17183 0.03246,0.0273 0.06869,0.0673 0.08408,0.12624 0.01538,0.0591 5.4e-4,0.12608 -0.02575,0.17008 -0.05259,0.088 -0.121209,0.12182 -0.207606,0.16294 -0.152232,0.0725 -0.420338,0.14639 -0.756921,0.22792 -0.038,0.0919 -0.05937,0.1717 -0.03717,0.24242 0.02693,0.0858 0.09824,0.18086 0.220385,0.27828 0.244289,0.19497 0.67562,0.38436 1.176198,0.55751 0.982622,0.33989 2.197329,0.62924 2.908325,1.06989 0.0036,8.6e-4 0.01322,4.8e-4 0.01691,0.001 l -0.0025,0.002 c 0.0098,0.008 0.03057,0.009 0.04015,0.0153 0.172857,0.10465 0.04653,0.36842 -0.143847,0.30037 -0.980746,-0.32928 -3.119255,-0.6525 -4.793487,-0.6403 -0.837111,0.006 -1.566301,0.10296 -1.950987,0.28904 -0.192343,0.093 -0.285467,0.19381 -0.311178,0.29981 -0.02431,0.10025 0.01931,0.25456 0.16329,0.45931 12.41997,5.21142 15.28385,13.71682 16.446181,21.32329 5.6e-4,0.006 8.35e-4,0.013 7.61e-4,0.0194 0.09541,2.11096 0.929325,4.30994 1.130264,6.52421 0.200606,2.21095 -0.262757,4.45132 -2.738034,6.5562 0.0023,-0.004 0.006,-0.008 0.0084,-0.0104 l -0.01929,0.0202 0.0085,-0.008 c -1.939859,2.25288 -3.248444,4.7959 -5.236778,7.1809 -1.992159,2.38961 -4.673468,4.61051 -9.33896,6.19415 -0.01413,0.006 -0.0287,0.009 -0.04371,0.01 -0.779593,0.0471 -2.085909,0.37142 -2.103759,0.27947 -0.641973,-3.50311 -2.009452,-13.43483 0.863565,-17.49513 2.202448,-3.11261 3.015143,-6.25091 2.641364,-9.89962 -0.526057,-5.13519 -3.476595,-7.42618 -5.967749,-7.37809 -2.49115,0.0482 -6.051635,2.53585 -5.901365,9.11968 0.0829,3.63252 0.793859,5.22438 2.846733,8.68115 0.405763,0.68325 0.858556,1.71637 1.092285,3.52285 0.674048,5.20971 0.440801,13.73265 -1.016781,15.45179 -0.676443,1.15063 -1.408281,1.98057 -1.618108,2.60714 -0.104911,0.31327 -0.09602,0.55479 0.08409,0.82059 0.178641,0.26362 0.560834,0.5537 1.212835,0.86309 3.593495,1.20502 8.554062,0.39284 12.7778,0.0645 3.329221,-0.50738 5.367135,-1.64292 7.132715,-2.94147 1.757177,-1.29235 3.250001,-2.75462 5.436661,-3.88989 11.273105,-8.75723 13.005857,-18.19967 12.424749,-27.86244 -6.52e-4,-0.008 -9.11e-4,-0.0146 -8.64e-4,-0.022 0.1887,-2.21837 -1.330307,-4.58107 -3.075053,-6.63893 -0.872379,-1.02894 -1.796101,-1.97967 -2.579562,-2.80508 -0.774717,-0.8162 -1.407159,-1.50116 -1.729332,-2.0437 -3.030565,-3.88346 -5.723138,-8.3265 -13.287878,-10.68016 -0.793459,-0.2329 -2.156774,-0.43914 -2.826117,-0.5614 -0.167341,-0.0307 -0.284849,-0.0509 -0.368194,-0.0788 -0.02084,-0.007 -0.04027,-0.0125 -0.07199,-0.0333 -0.008,-0.005 -0.01474,-0.0107 -0.02547,-0.021 -0.0053,-0.005 -0.01789,-0.0188 -0.01826,-0.0193 -3.85e-4,-4.9e-4 -0.01838,-0.0279 -0.01862,-0.0285 -4.7e-4,-9.7e-4 -0.01875,-0.0942 -0.01864,-0.0952 9.3e-5,-8.6e-4 0.03603,-0.0888 0.03669,-0.0896 3.17e-4,-3.7e-4 0.02317,-0.0251 0.02365,-0.0255 4.83e-4,-3.8e-4 0.01515,-0.0119 0.02143,-0.0158 0.01265,-0.009 0.02228,-0.0109 0.03116,-0.0156 0.01782,-0.007 0.03203,-0.009 0.04429,-0.0117 0.02451,-0.005 0.04404,-0.008 0.07026,-0.0108 0.210104,-0.0173 0.708821,-0.003 1.708414,0.0405 1.076637,-0.009 1.727595,-0.14666 2.016221,-0.31232 0.145017,-0.0831 0.193833,-0.15859 0.207057,-0.22641 0.01328,-0.0678 -0.007,-0.15804 -0.08667,-0.27383 -0.159235,-0.23145 -0.544776,-0.51812 -1.034283,-0.75869 -0.489519,-0.24056 -1.084005,-0.44191 -1.664148,-0.54807 -0.0064,-0.002 -0.01319,-0.003 -0.01973,-0.007 -3.718157,-1.14064 -8.600847,-2.15481 -13.314438,-2.00609 z m -11.125665,1.31762 c -0.309369,0.0636 -0.581289,0.27008 -0.962115,0.38624 -0.09262,0.0909 -0.134482,0.16754 -0.14118,0.23614 -0.0072,0.073 0.01609,0.15402 0.07854,0.24953 0.124861,0.19111 0.40837,0.41202 0.733235,0.60598 0.324866,0.19396 0.688117,0.36577 0.974828,0.49935 0.143352,0.0667 0.26695,0.12533 0.360843,0.17238 0.04694,0.0235 0.08695,0.0425 0.121189,0.064 0.01712,0.0106 0.03301,0.0221 0.05076,0.0375 0.01775,0.0152 0.04211,0.0297 0.06255,0.0901 0.03832,0.11319 -0.05135,0.22905 -0.170979,0.22046 -1.221118,-0.0881 -2.812791,-0.0944 -3.927274,0.11528 -0.557242,0.10483 -0.992993,0.27337 -1.186073,0.46304 -0.09655,0.0948 -0.136767,0.18192 -0.136381,0.2923 4.27e-4,0.11041 0.05057,0.25638 0.184544,0.43904 0.0021,0.004 0.0037,0.006 0.0055,0.01 0.357248,0.57233 1.189457,1.03758 2.300466,1.34506 1.111012,0.30751 2.491913,0.46335 3.91611,0.47588 2.848393,0.025 5.88661,-0.54319 7.325468,-1.54996 -4e-5,-8.7e-4 -4.5e-5,-0.001 -1.17e-4,-0.003 0.164894,-0.11401 0.197216,-0.19126 0.19731,-0.24351 5.1e-5,-0.0523 -0.0417,-0.13207 -0.14703,-0.22676 -0.210671,-0.18947 -0.630344,-0.3863 -0.973583,-0.53372 -0.171619,-0.0737 -0.323522,-0.13636 -0.433577,-0.19155 -0.05503,-0.0276 -0.09561,-0.0462 -0.143692,-0.0922 -0.02404,-0.0229 -0.06517,-0.0575 -0.06772,-0.1392 -0.0025,-0.0818 0.06467,-0.15291 0.104075,-0.17379 0.0788,-0.0414 0.125075,-0.0365 0.200773,-0.0396 0.07571,-0.003 0.173251,-0.002 0.298506,0.005 0.250413,0.0117 0.613787,0.0393 1.130522,0.0878 0.0024,6.9e-4 0.0048,8.1e-4 0.0072,0.002 1.070474,0.15061 2.60425,0.59838 3.752061,0.74075 0.573902,0.0712 1.04864,0.0532 1.280082,-0.0671 0.115726,-0.0601 0.172654,-0.12736 0.199252,-0.2436 0.0235,-0.10281 -0.0053,-0.2751 -0.07268,-0.48035 -1.677495,-0.92149 -4.120439,-1.30777 -6.723791,-1.57561 -2.631385,-0.27072 -5.412832,-0.43229 -7.719438,-0.96976 -0.0018,-7.7e-4 -0.0035,-8.6e-4 -0.0052,-0.003 -0.02373,-0.006 -0.128406,0.006 -0.233239,0.0221 -0.05242,0.008 -0.104456,0.0195 -0.179434,0.005 -0.01831,-0.004 -0.03917,-0.0215 -0.06027,-0.032 z m 32.126156,10.45564 c 5.1e-5,0 0.06904,0.0102 0.06917,0.0102 1.55e-4,1.2e-4 0.04492,0.0253 0.04505,0.0255 2.17e-4,1.2e-4 0.01172,0.0109 0.01487,0.0144 0.0066,0.007 0.01318,0.009 0.0161,0.0137 0.0053,0.008 0.0079,0.011 0.01322,0.0169 0.409674,0.38995 0.889582,1.06822 1.130324,1.4538 0.06106,0.0979 0.107078,0.17351 0.134954,0.23307 0.0069,0.0149 0.01238,0.0277 0.01859,0.0453 0.0029,0.009 0.0046,0.0207 0.0064,0.0347 0.0013,0.007 0.003,0.0137 0.0034,0.0238 5.05e-4,0.01 -0.0034,0.0409 -0.0034,0.0416 -1.58e-4,7.7e-4 -0.0263,0.0653 -0.02665,0.0659 -3.19e-4,5e-4 -0.07613,0.0618 -0.07663,0.0619 -6.64e-4,3e-5 -0.07992,0.0101 -0.08067,0.0102 -6.64e-4,3e-5 -0.03574,-0.006 -0.04711,-0.0111 -0.04548,-0.0173 -0.05473,-0.0293 -0.06838,-0.0413 -0.05459,-0.0482 -0.103642,-0.11162 -0.195822,-0.23068 -0.09108,-0.11762 -0.213614,-0.28687 -0.374818,-0.51188 -0.0656,-0.0632 -0.130433,-0.14189 -0.206767,-0.24514 -0.08349,-0.11292 -0.171877,-0.24436 -0.252978,-0.36511 -0.08104,-0.12078 -0.153162,-0.22957 -0.19933,-0.30372 -0.02317,-0.0371 -0.03947,-0.0624 -0.05207,-0.0861 -0.0027,-0.006 -0.0054,-0.0111 -0.01109,-0.0268 -0.0015,-0.004 -0.0056,-0.0138 -0.0056,-0.0141 -1.35e-4,-2.5e-4 -0.0066,-0.0396 -0.0066,-0.0398 -6e-6,-1.3e-4 0.0057,-0.0461 0.0057,-0.0462 -5e-6,-1.3e-4 0.04605,-0.0802 0.04617,-0.0802 2e-5,-1.3e-4 0.103777,-0.048 0.103777,-0.048 z m 3.764717,6.46548 2.6e-5,6.7e-4 c 0.02155,-8.4e-4 0.03925,0.002 0.05403,0.005 0.02963,0.007 0.04865,0.0179 0.06532,0.0273 0.03337,0.0188 0.05819,0.0375 0.08616,0.0626 0.0065,0.006 0.01177,0.0121 0.01755,0.0187 l 0.0906,0.11176 c 4.7e-5,8.6e-4 5.2e-5,10e-4 7.9e-5,0.002 0.328784,0.40951 0.721399,0.88406 1.03556,1.35261 0.31416,0.46853 0.560028,0.92492 0.559981,1.34665 7.06e-4,0.14562 -0.173273,0.22199 -0.281125,0.12372 -0.339735,-0.30678 -0.795597,-0.97632 -1.174778,-1.59522 -0.189603,-0.30945 -0.355262,-0.60354 -0.468351,-0.82949 -0.05651,-0.11297 -0.09903,-0.20837 -0.126723,-0.28715 -0.01409,-0.0394 -0.02442,-0.0723 -0.0291,-0.1148 -0.0021,-0.0213 -0.0043,-0.0456 0.0043,-0.0811 0.0086,-0.0357 0.0366,-0.0939 0.09303,-0.12348 9.89e-4,-5e-5 0.0013,-6e-5 0.0025,-1e-4 9.5e-4,-0.001 0.02492,-0.011 0.03709,-0.0144 0.01245,-0.002 0.02336,-0.006 0.03414,-0.006 z m -23.235567,4.65992 c 2.47942,-0.0973 4.546004,3.1106 4.615685,7.16529 0.06969,4.05472 -2.860497,8.21699 -4.591403,8.28493 -1.730904,0.0679 -4.31781,-3.87775 -4.387487,-7.93248 -0.06968,-4.0547 1.883789,-7.42042 4.363205,-7.51774 z m 27.731861,8.16793 c 9.95e-4,10e-5 0.04958,0.0132 0.05048,0.0136 10e-4,3.4e-4 0.0257,0.0153 0.03527,0.0226 0.01915,0.0147 0.02909,0.0283 0.03786,0.0406 0.01751,0.0243 0.02534,0.0413 0.03221,0.0596 0.01267,0.0351 0.02241,0.0722 0.03053,0.116 0.08797,0.20464 0.103818,0.48366 0.109301,0.81833 0.0065,0.35589 -0.01598,0.75363 -0.05092,1.08111 -0.01742,0.16371 -0.03744,0.30878 -0.06171,0.42602 -0.01213,0.0586 -0.02525,0.11129 -0.04052,0.15705 -0.01527,0.0457 -0.02703,0.0851 -0.07125,0.13493 -0.02212,0.0248 -0.0585,0.0569 -0.120654,0.0657 -0.06216,0.008 -0.126459,-0.0218 -0.156954,-0.0502 -0.06095,-0.0565 -0.06608,-0.10082 -0.08195,-0.15354 -0.0315,-0.10556 -0.05437,-0.25331 -0.07595,-0.48021 -5.49e-4,-0.006 -7.57e-4,-0.0113 -6.83e-4,-0.0174 -2.01e-4,-0.19654 0.02011,-0.71211 0.05185,-1.18866 0.01587,-0.23828 0.03437,-0.46407 0.05614,-0.63503 0.01095,-0.0855 0.02171,-0.15645 0.03635,-0.21517 0.0077,-0.0294 0.01469,-0.0541 0.03098,-0.0867 0.0082,-0.0163 0.01565,-0.0361 0.04167,-0.0605 0.0061,-0.006 0.01396,-0.0119 0.02324,-0.0184 0.0098,-0.006 0.03356,-0.0177 0.0343,-0.0182 0.0013,-0.001 0.08877,-0.0115 0.0904,-0.0116 z"
       id="path896-0"
       inkscape:connector-curvature="0"
       sodipodi:nodetypes="cccccsccccccccccccccccccccsccccccccccccsszssscccccccccccccccccccccccccccccccccccccccccccccccccccccccccccccccccccccsccccccccccccccccccccsccccccccccsccccccccccccccccccccccccccsssssccccccccccccccccccccccccc" />
    <path
       style="color:#000000;clip-rule:nonzero;display:inline;overflow:visible;visibility:visible;opacity:1;isolation:auto;mix-blend-mode:normal;color-interpolation:sRGB;color-interpolation-filters:linearRGB;solid-color:#000000;solid-opacity:1;vector-effect:none;fill:url(#radialGradient864-2);fill-opacity:1;fill-rule:evenodd;stroke:none;stroke-width:1.41901422;stroke-linecap:round;stroke-linejoin:round;stroke-miterlimit:4;stroke-dasharray:none;stroke-dashoffset:0;stroke-opacity:0.33936654;marker:none;color-rendering:auto;image-rendering:auto;shape-rendering:auto;text-rendering:auto;enable-background:accumulate"
       d="m 33.515609,264.21378 c 0.07299,4.2473 -3.086062,8.52561 -4.851889,8.59493 -1.765827,0.0693 -4.480343,-3.97846 -4.553328,-8.22575 -0.07299,-4.24729 1.973273,-7.77305 4.570452,-7.875 2.597182,-0.10194 4.761781,3.25853 4.834765,7.50582 z"
       id="path856-9"
       inkscape:connector-curvature="0"
       sodipodi:nodetypes="szsss" />
    <path
       style="color:#000000;clip-rule:nonzero;display:inline;overflow:visible;visibility:visible;opacity:1;isolation:auto;mix-blend-mode:normal;color-interpolation:sRGB;color-interpolation-filters:linearRGB;solid-color:#000000;solid-opacity:1;vector-effect:none;fill:url(#radialGradient908-3);fill-opacity:1;fill-rule:evenodd;stroke:none;stroke-width:3.17197633;stroke-linecap:round;stroke-linejoin:round;stroke-miterlimit:4;stroke-dasharray:none;stroke-dashoffset:0;stroke-opacity:1;marker:none;color-rendering:auto;image-rendering:auto;shape-rendering:auto;text-rendering:auto;enable-background:accumulate"
       d="m 28.562084,255.27228 c -3.26661,0.20907 -6.303034,4.3507 -5.534857,10.38836 0.613417,4.8213 2.425982,5.83495 3.575507,8.53831 0.890772,2.07994 1.056185,10.9874 1.376182,16.45492 l 1.247266,-0.049 c 0.247643,-5.49572 0.3009,-14.41043 1.41829,-16.43619 1.51561,-2.60722 3.378865,-4.9659 3.738754,-8.35164 0.6352,-5.9758 -2.096334,-10.5057 -5.503732,-10.55261 -0.106461,-8.3e-4 -0.212025,0.001 -0.317424,0.007 z m 0.07603,1.52273 c 2.556394,-0.10034 4.687896,3.22526 4.760598,7.42785 0.07271,4.20257 -2.947583,8.51555 -4.732224,8.5856 -1.784642,0.07 -4.452844,-4.01964 -4.525546,-8.22221 -0.07271,-4.20259 1.94078,-7.69089 4.497172,-7.79124 z"
       id="path1005-2"
       inkscape:connector-curvature="0"
       sodipodi:nodetypes="csccccscccscsss" />
    <path
       style="color:#000000;font-style:normal;font-variant:normal;font-weight:normal;font-stretch:normal;font-size:medium;line-height:normal;font-family:sans-serif;font-variant-ligatures:normal;font-variant-position:normal;font-variant-caps:normal;font-variant-numeric:normal;font-variant-alternates:normal;font-feature-settings:normal;text-indent:0;text-align:start;text-decoration:none;text-decoration-line:none;text-decoration-style:solid;text-decoration-color:#000000;letter-spacing:normal;word-spacing:normal;text-transform:none;writing-mode:lr-tb;direction:ltr;text-orientation:mixed;dominant-baseline:auto;baseline-shift:baseline;text-anchor:start;white-space:normal;shape-padding:0;clip-rule:nonzero;display:inline;overflow:visible;visibility:visible;opacity:1;isolation:auto;mix-blend-mode:normal;color-interpolation:sRGB;color-interpolation-filters:linearRGB;solid-color:#000000;solid-opacity:1;vector-effect:none;fill:#a9f000;fill-opacity:1;fill-rule:evenodd;stroke:none;stroke-width:2.13876987;stroke-linecap:round;stroke-linejoin:round;stroke-miterlimit:4;stroke-dasharray:none;stroke-dashoffset:0;stroke-opacity:1;marker:none;color-rendering:auto;image-rendering:auto;shape-rendering:auto;text-rendering:auto;enable-background:accumulate"
       d="m 25.100624,233.53285 c 4.293242,1.68133 12.098676,3.08257 16.941083,2.82565 -4.131491,-1.93349 -10.742364,-3.07012 -16.941083,-2.82565 z m -8.718003,1.23981 c 1.20094,2.59999 10.353049,0.24473 13.357081,2.36748 -0.918941,-1.38263 -9.979332,-1.34762 -13.357081,-2.36748 z m -2.969733,2.47139 c -0.879267,3.86748 18.458227,0.87258 7.300092,0.0535 -2.426305,-0.0566 -4.910426,0.14616 -7.300092,-0.0535 z m 23.44042,0.39337 c 7.372447,2.44707 13.853887,5.67409 14.782646,10.07061 0.225756,2.30558 6.587726,6.16872 2.022433,7.56657 -3.920895,-2.72421 -3.776329,-6.62127 -6.64915,-9.71981 -1.635195,-2.73888 -6.430692,-5.88021 -13.04111,-5.70815 12.162509,4.80426 14.9893,12.6733 16.875071,19.78298 -0.239107,3.7635 1.919112,7.44367 0.909786,11.18274 -2.214894,2.83766 -4.783035,5.58988 -6.404821,8.51619 -2.413282,3.00393 -5.549034,6.3978 -11.721264,8.18989 -2.270008,0.60726 -3.663236,0.0425 -4.77514,-0.0667 -0.493112,-0.0485 -1.040304,-0.15475 -1.066733,-0.59824 -0.03556,-0.59906 2.54892,-1.35803 2.501974,-2.56612 -0.03059,-0.78725 -1.017621,-1.10569 -2.045422,-1.4215 -0.943347,-0.28987 1.415119,-0.90115 1.619595,-1.69511 0.305906,-1.18783 -0.978376,-0.899 -1.384714,-1.69228 -0.500037,-0.97621 0.764652,-2.12679 0.874108,-2.46232 0.109471,-0.33553 -0.669833,-1.35352 -0.655355,-1.71559 0.02642,-0.66048 0.201938,-0.44311 0.269414,-1.35134 -0.190844,0.79469 -0.601118,1.07751 -0.358526,1.79067 0.242594,0.71317 0.753021,1.01454 0.218621,1.80726 -0.707925,1.05014 -1.039935,1.56966 -0.710823,2.06599 0.29525,0.44525 1.117522,0.34812 1.337768,1.27294 0.220243,0.9248 -2.178835,1.5006 -2.132881,1.89024 0.04595,0.38966 2.077773,0.61121 2.380406,1.2919 0.302635,0.68071 -1.301588,1.49914 -1.804486,1.67907 -1.611937,0.57672 -0.603821,2.58096 -0.594206,2.79334 0.161193,3.56079 -3.657981,4.93012 3.013309,4.92069 0.801313,-0.0747 1.585803,-0.17229 2.352863,-0.28996 0.04075,0.013 0.08171,0.0253 0.122133,0.0398 2.100125,0.12873 4.50787,-0.24347 6.270721,-0.54222 1.022486,-0.57747 2.510532,-0.51776 3.015235,-1.32937 0.392942,0.19273 1.635358,-0.78657 1.84656,-1.10783 0.688929,-0.36165 1.179324,-1.031 1.956564,-1.48077 0.131332,-0.11495 0.247344,-0.21128 0.356763,-0.29944 1.494978,-0.84183 2.849698,-1.72327 4.061011,-2.59407 9.164435,-7.51877 11.682591,-16.19117 11.523268,-24.41692 1.310137,-4.14863 -4.275091,-7.07971 -6.202362,-10.83258 -2.277451,-3.7669 -5.212028,-7.56628 -10.204529,-10.70876 -2.068118,-1.27928 -5.169109,-1.91774 -8.558737,-2.26173 z m 17.368884,20.97261 c 4.498907,2.36907 4.695443,7.22251 2.572556,9.53517 -4.835525,-1.65335 0.11286,-5.72847 -3.713865,-8.11568 -0.053,-0.50303 0.336946,-1.03634 1.141309,-1.41949 z"
       id="path815-2"
       inkscape:connector-curvature="0"
       sodipodi:nodetypes="ccccccccccccccccccsssssssscsssssssccccccccccccccccccc" />
    <path
       inkscape:connector-curvature="0"
       id="path1098-8"
       d="m 56.149519,256.52092 c -1.300134,0.47246 -4.440976,0.50699 -2.480465,1.21823 1.926292,-0.28649 3.908467,0.86475 4.330521,1.04229 -0.50874,-0.70304 -0.955172,-1.8159 -1.850056,-2.26052 z m -1.096075,13.35778 c -1.219114,4.14872 -5.981611,8.01251 -8.285811,12.00186 -2.857451,3.48776 -8.093925,7.01656 -16.292496,8.1497 -1.594342,0.47677 -3.92845,2.5603 -0.420912,2.28947 4.459737,0.0132 9.731427,-0.51232 11.402427,-2.72487 7.575368,-4.6942 12.770737,-10.05852 14.762593,-15.68692 0.303556,-1.26933 1.586156,-3.16644 1.00014,-4.08235 -0.650501,0.17273 -1.826933,-0.0631 -2.165943,0.0531 z"
       style="color:#000000;font-style:normal;font-variant:normal;font-weight:normal;font-stretch:normal;font-size:medium;line-height:normal;font-family:sans-serif;font-variant-ligatures:normal;font-variant-position:normal;font-variant-caps:normal;font-variant-numeric:normal;font-variant-alternates:normal;font-feature-settings:normal;text-indent:0;text-align:start;text-decoration:none;text-decoration-line:none;text-decoration-style:solid;text-decoration-color:#000000;letter-spacing:normal;word-spacing:normal;text-transform:none;writing-mode:lr-tb;direction:ltr;text-orientation:mixed;dominant-baseline:auto;baseline-shift:baseline;text-anchor:start;white-space:normal;shape-padding:0;clip-rule:nonzero;display:inline;overflow:visible;visibility:visible;opacity:1;isolation:auto;mix-blend-mode:normal;color-interpolation:sRGB;color-interpolation-filters:linearRGB;solid-color:#000000;solid-opacity:1;vector-effect:none;fill:url(#linearGradient1058-9);fill-opacity:1;fill-rule:evenodd;stroke:none;stroke-width:2.1387701;stroke-linecap:round;stroke-linejoin:round;stroke-miterlimit:4;stroke-dasharray:none;stroke-dashoffset:0;stroke-opacity:1;marker:none;color-rendering:auto;image-rendering:auto;shape-rendering:auto;text-rendering:auto;enable-background:accumulate"
       sodipodi:nodetypes="ccccccccccccc" />
    <path
       sodipodi:nodetypes="ssss"
       inkscape:connector-curvature="0"
       id="path890-9"
       d="m 28.115565,259.86613 c -0.486454,0.0334 -1.674546,0.0868 -1.962376,0.39705 -1.770739,1.90873 -0.01022,8.40951 0.717209,10.78636 0.948678,3.09977 4.154609,-11.38285 1.245167,-11.18341 z"
       style="color:#000000;font-style:normal;font-variant:normal;font-weight:normal;font-stretch:normal;font-size:medium;line-height:normal;font-family:sans-serif;font-variant-ligatures:normal;font-variant-position:normal;font-variant-caps:normal;font-variant-numeric:normal;font-variant-alternates:normal;font-feature-settings:normal;text-indent:0;text-align:start;text-decoration:none;text-decoration-line:none;text-decoration-style:solid;text-decoration-color:#000000;letter-spacing:normal;word-spacing:normal;text-transform:none;writing-mode:lr-tb;direction:ltr;text-orientation:mixed;dominant-baseline:auto;baseline-shift:baseline;text-anchor:start;white-space:normal;shape-padding:0;clip-rule:nonzero;display:inline;overflow:visible;visibility:visible;opacity:1;isolation:auto;mix-blend-mode:normal;color-interpolation:sRGB;color-interpolation-filters:linearRGB;solid-color:#000000;solid-opacity:1;vector-effect:none;fill:url(#linearGradient906-2);fill-opacity:1;fill-rule:evenodd;stroke:none;stroke-width:3.17197657;stroke-linecap:round;stroke-linejoin:round;stroke-miterlimit:4;stroke-dasharray:none;stroke-dashoffset:0;stroke-opacity:1;marker:none;color-rendering:auto;image-rendering:auto;shape-rendering:auto;text-rendering:auto;enable-background:accumulate" />
    <path
       style="color:#000000;clip-rule:nonzero;display:inline;overflow:visible;visibility:visible;opacity:1;isolation:auto;mix-blend-mode:normal;color-interpolation:sRGB;color-interpolation-filters:linearRGB;solid-color:#000000;solid-opacity:1;vector-effect:none;fill:#ffffff;fill-opacity:1;fill-rule:evenodd;stroke:none;stroke-width:3.29269457;stroke-linecap:round;stroke-linejoin:round;stroke-miterlimit:4;stroke-dasharray:none;stroke-dashoffset:0;stroke-opacity:0.33936654;marker:none;color-rendering:auto;image-rendering:auto;shape-rendering:auto;text-rendering:auto;enable-background:accumulate"
       d="m 27.382838,260.09186 c 0.720766,-0.0283 1.27127,0.10205 1.234318,0.29223 l -0.332839,1.71294 c -0.03696,0.1902 -0.646966,0.36608 -1.367731,0.39437 -0.720768,0.0283 -1.271276,-0.10203 -1.234318,-0.29223 l 0.332837,-1.71294 c 0.03696,-0.19018 0.646966,-0.36608 1.367733,-0.39437 z"
       id="rect2736-7"
       inkscape:connector-curvature="0"
       sodipodi:nodetypes="sssssss" />
  </g>
</svg>
